<svg width="64" height="61" viewBox="0 0 64 61" fill="none" xmlns="http://www.w3.org/2000/svg">
<g clip-path="url(#clip0_7043_7275)">
<rect width="64" height="60.1854" rx="7.2053" fill="white"/>
<g filter="url(#filter0_d_7043_7275)">
<path d="M12.3538 12.5022C12.36 11.0937 13.5099 9.95849 14.9184 9.97048L32.9725 10.1242C35.2854 10.1439 36.3732 12.9905 34.6629 14.5476L16.5352 31.0513C14.8981 32.5417 12.2704 31.3735 12.2802 29.1596L12.3538 12.5022Z" fill="#242063"/>
</g>
<g filter="url(#filter1_d_7043_7275)">
<path d="M14.7246 50.3108C13.3161 50.3166 12.1712 49.1763 12.1712 47.7678L12.1712 29.7131C12.1712 27.4001 15.0085 26.2881 16.5801 27.9851L33.2375 45.9716C34.7418 47.596 33.596 50.2335 31.3821 50.2426L14.7246 50.3108Z" fill="#EC232A"/>
</g>
<path d="M52.387 48.1753C52.3728 49.5838 51.2165 50.7125 49.8081 50.6925L31.7551 50.437C29.4424 50.4042 28.3707 47.5515 30.0898 46.0041L48.3103 29.6029C49.9558 28.1217 52.5769 29.3048 52.5546 31.5186L52.387 48.1753Z" fill="#242063"/>
<path d="M50.0005 10.1619C51.4011 10.1619 52.538 11.2944 52.5435 12.695L52.6139 30.7571C52.623 33.0721 49.7857 34.1942 48.2089 32.4992L31.4065 14.4371C29.8933 12.8105 31.0468 10.1619 33.2684 10.1619L50.0005 10.1619Z" fill="#EC232A"/>
<path d="M32.1846 10.1445L39.3899 10.1445L30.2773 18.4816L30.2773 10.1445L32.1846 10.1445Z" fill="#242063"/>
</g>
<defs>
<filter id="filter0_d_7043_7275" x="10.162" y="9.54686" width="28.3048" height="26.8341" filterUnits="userSpaceOnUse" color-interpolation-filters="sRGB">
<feFlood flood-opacity="0" result="BackgroundImageFix"/>
<feColorMatrix in="SourceAlpha" type="matrix" values="0 0 0 0 0 0 0 0 0 0 0 0 0 0 0 0 0 0 127 0" result="hardAlpha"/>
<feOffset dx="0.423841" dy="2.11921"/>
<feGaussianBlur stdDeviation="1.27152"/>
<feComposite in2="hardAlpha" operator="out"/>
<feColorMatrix type="matrix" values="0 0 0 0 0 0 0 0 0 0 0 0 0 0 0 0 0 0 0.25 0"/>
<feBlend mode="normal" in2="BackgroundImageFix" result="effect1_dropShadow_7043_7275"/>
<feBlend mode="normal" in="SourceGraphic" in2="effect1_dropShadow_7043_7275" result="shape"/>
</filter>
<filter id="filter1_d_7043_7275" x="10.0527" y="23.3505" width="25.1368" height="26.9601" filterUnits="userSpaceOnUse" color-interpolation-filters="sRGB">
<feFlood flood-opacity="0" result="BackgroundImageFix"/>
<feColorMatrix in="SourceAlpha" type="matrix" values="0 0 0 0 0 0 0 0 0 0 0 0 0 0 0 0 0 0 127 0" result="hardAlpha"/>
<feOffset dx="-0.423841" dy="-2.11921"/>
<feGaussianBlur stdDeviation="0.847682"/>
<feComposite in2="hardAlpha" operator="out"/>
<feColorMatrix type="matrix" values="0 0 0 0 0 0 0 0 0 0 0 0 0 0 0 0 0 0 0.3 0"/>
<feBlend mode="normal" in2="BackgroundImageFix" result="effect1_dropShadow_7043_7275"/>
<feBlend mode="normal" in="SourceGraphic" in2="effect1_dropShadow_7043_7275" result="shape"/>
</filter>
<clipPath id="clip0_7043_7275">
<rect width="64" height="60.1854" rx="7.2053" fill="white"/>
</clipPath>
</defs>
</svg>
